<?xml version="1.0" standalone="no"?><!DOCTYPE svg PUBLIC "-//W3C//DTD SVG 1.1//EN"
        "http://www.w3.org/Graphics/SVG/1.1/DTD/svg11.dtd">
<svg t="1562125973017" class="icon" viewBox="0 0 1024 1024" version="1.1" xmlns="http://www.w3.org/2000/svg" p-id="6602"
     xmlns:xlink="http://www.w3.org/1999/xlink" width="200" height="200">
    <defs>
        <style type="text/css"></style>
    </defs>
    <path d="M172.8 483.2h11.2c3.2 0 4.8 3.2 4.8 6.4s-3.2 4.8-4.8 4.8h-11.2v11.2c0 3.2-3.2 4.8-4.8 4.8-1.6 0-3.2 0-4.8-1.6-1.6-1.6-1.6-1.6-1.6-3.2v-11.2h-11.2c-3.2 0-4.8-3.2-4.8-4.8 0-3.2 3.2-6.4 4.8-6.4h11.2v-11.2c0-3.2 3.2-4.8 6.4-4.8s4.8 1.6 4.8 4.8v11.2z m740.8-44.8v-11.2c0-1.6 0-3.2-1.6-3.2-1.6-1.6-3.2-1.6-4.8-1.6-3.2 0-4.8 1.6-4.8 4.8v11.2h-11.2c-1.6 0-3.2 0-4.8 1.6-1.6 1.6-1.6 3.2-1.6 4.8 0 3.2 3.2 4.8 4.8 4.8h11.2v11.2c0 3.2 3.2 4.8 4.8 4.8 3.2 0 6.4-3.2 6.4-4.8v-11.2h11.2c3.2 0 4.8-3.2 4.8-4.8 0-3.2-3.2-6.4-4.8-6.4h-9.6zM505.6 622.4H222.4c-3.2 0-6.4-1.6-8-3.2-1.6-1.6-3.2-4.8-3.2-8 0-6.4 4.8-11.2 11.2-11.2h51.2c-3.2-6.4-6.4-14.4-6.4-22.4V252.8c0-11.2 4.8-24 12.8-32s19.2-12.8 32-12.8h33.6v-11.2c0-11.2 4.8-24 12.8-32s19.2-12.8 32-12.8h270.4c11.2 0 24 4.8 32 12.8s12.8 19.2 12.8 32v326.4c0 8-1.6 16-6.4 22.4h62.4c6.4 0 11.2 4.8 11.2 11.2 0 6.4-4.8 11.2-11.2 11.2h-134.4v11.2c0 8-1.6 16-6.4 22.4h6.4c6.4 0 11.2 4.8 11.2 11.2 0 6.4-4.8 11.2-11.2 11.2h-59.2c4.8 8 4.8 19.2-3.2 27.2-4.8 4.8-9.6 6.4-16 6.4s-11.2-1.6-16-6.4l-27.2-28.8z m41.6-22.4h35.2c12.8 0 22.4-9.6 22.4-22.4V251.2c0-12.8-9.6-22.4-20.8-22.4h-272c-11.2 0-22.4 9.6-22.4 22.4v326.4c0 12.8 9.6 22.4 22.4 22.4h171.2l-6.4-6.4c-6.4-6.4-8-14.4-6.4-22.4l-11.2-11.2c-33.6 24-80 19.2-107.2-11.2-27.2-30.4-25.6-78.4 3.2-107.2 28.8-28.8 76.8-30.4 107.2-3.2 32 27.2 36.8 73.6 11.2 107.2l11.2 11.2c8-1.6 16 0 22.4 6.4l40 36.8z m80-56h33.6c12.8 0 22.4-9.6 22.4-22.4V195.2c0-12.8-9.6-22.4-22.4-22.4H392c-12.8 0-22.4 9.6-22.4 22.4v12.8h212.8c11.2 0 24 4.8 32 12.8s12.8 19.2 12.8 32V544zM232 131.2h16c4.8 0 8 3.2 8 8s-3.2 8-8 8h-16v16c0 4.8-3.2 8-8 8-1.6 0-4.8-1.6-6.4-3.2-1.6-1.6-1.6-3.2-1.6-6.4v-16h-17.6c-1.6 0-4.8 0-6.4-3.2-1.6-1.6-3.2-3.2-3.2-6.4 0-4.8 3.2-8 8-8h17.6V112c0-4.8 3.2-8 8-8s8 3.2 8 8v19.2z m-132.8 480c0-6.4 4.8-11.2 11.2-11.2h67.2c6.4 0 11.2 4.8 11.2 11.2 0 6.4-4.8 11.2-11.2 11.2H110.4c-3.2 0-6.4-1.6-8-3.2-1.6-1.6-3.2-4.8-3.2-8z m355.2-72c22.4-22.4 22.4-57.6 0-80s-57.6-22.4-80 0-22.4 57.6 0 80 57.6 22.4 80 0zM336 275.2c0-6.4 4.8-11.2 11.2-11.2h123.2c6.4 0 11.2 4.8 11.2 11.2 0 6.4-4.8 11.2-11.2 11.2h-123.2c-3.2 0-6.4-1.6-8-3.2-3.2-3.2-3.2-6.4-3.2-8z m0 56c0-6.4 4.8-11.2 11.2-11.2h179.2c6.4 0 11.2 4.8 11.2 11.2 0 6.4-4.8 11.2-11.2 11.2H347.2c-3.2 0-6.4-1.6-8-3.2-3.2-3.2-3.2-4.8-3.2-8z m0 56c0-6.4 4.8-11.2 11.2-11.2h78.4c6.4 0 11.2 4.8 11.2 11.2 0 6.4-4.8 11.2-11.2 11.2h-78.4c-3.2 0-6.4-1.6-8-3.2-3.2-1.6-3.2-4.8-3.2-8zM121.6 320c-12.8 0-22.4-6.4-28.8-17.6-6.4-11.2-6.4-24 0-33.6 6.4-11.2 17.6-17.6 28.8-17.6 19.2 0 33.6 14.4 33.6 33.6 0 19.2-14.4 35.2-33.6 35.2z m0-17.6c6.4 0 11.2-3.2 14.4-8 3.2-4.8 3.2-11.2 0-16-3.2-6.4-8-9.6-14.4-9.6-9.6 0-17.6 8-17.6 17.6 1.6 9.6 8 16 17.6 16z m697.6-49.6c-12.8 0-24-6.4-28.8-17.6-6.4-9.6-6.4-24 0-33.6 6.4-9.6 17.6-17.6 28.8-17.6 19.2 0 33.6 14.4 33.6 33.6 0 19.2-16 35.2-33.6 35.2z m0-17.6c6.4 0 11.2-3.2 14.4-8 3.2-4.8 3.2-11.2 0-17.6-3.2-4.8-8-8-14.4-8-9.6 0-17.6 8-17.6 17.6 0 8 8 16 17.6 16z m0 0"
          fill="#bfbfbf" p-id="6603"></path>
    <path d="M81.6 840v11.2l-20.8 1.6v11.2H48v-9.6c-1.6 0-6.4 0-14.4 1.6-6.4 0-11.2 1.6-14.4 1.6l-1.6-12.8c12.8 0 24-1.6 30.4-1.6v-9.6H22.4l-3.2-11.2c3.2-3.2 6.4-8 9.6-14.4H14.4v-12.8h19.2l3.2-9.6 14.4 1.6-3.2 6.4h33.6v12.8H43.2c-3.2 4.8-4.8 9.6-8 14.4H48v-8h12.8v8h22.4v11.2H60.8v8h20.8z m51.2 27.2v57.6h-14.4v-4.8H46.4v4.8H32v-57.6h100.8z m-86.4 20.8h72V880H46.4v8z m0 19.2h72v-8H46.4v8z m57.6-73.6c-1.6 11.2-6.4 22.4-12.8 32l-9.6-9.6c6.4-9.6 9.6-20.8 9.6-32V800c19.2-1.6 33.6-4.8 43.2-9.6l9.6 8c-11.2 4.8-24 8-40 9.6v12.8h43.2v12.8h-14.4V864h-12.8v-30.4h-16zM174.4 795.2h108.8v14.4h-52.8v9.6c0 8-1.6 16-1.6 24h65.6v14.4h-44.8v48c0 4.8 1.6 8 6.4 8h16c3.2 0 4.8-1.6 6.4-3.2 1.6-1.6 3.2-9.6 3.2-20.8l12.8 4.8c-1.6 16-3.2 24-6.4 27.2-3.2 3.2-8 4.8-14.4 4.8h-24c-11.2 0-16-6.4-16-17.6v-51.2H224c-3.2 12.8-6.4 24-11.2 33.6-9.6 16-24 28.8-44.8 36.8l-6.4-16c20.8-9.6 33.6-20.8 41.6-35.2 3.2-6.4 6.4-14.4 8-22.4h-46.4v-14.4h49.6c1.6-8 1.6-16 1.6-24v-9.6h-41.6v-11.2zM308.8 832h33.6v62.4c3.2-1.6 6.4-6.4 11.2-12.8l3.2 14.4c-8 8-17.6 16-27.2 24l-4.8-12.8c3.2-1.6 3.2-4.8 3.2-8v-54.4h-20.8V832z m20.8-43.2c9.6 8 17.6 14.4 24 22.4l-9.6 9.6c-6.4-6.4-14.4-14.4-24-22.4l9.6-9.6z m64-1.6h12.8v8h35.2v11.2h-35.2v8h30.4v11.2h-30.4v8h40v11.2h-91.2v-11.2h38.4v-8h-28.8v-11.2h28.8v-8h-35.2v-11.2h35.2v-8z m-16 115.2v22.4h-12.8v-72h70.4v57.6c0 9.6-4.8 14.4-14.4 14.4h-12.8l-1.6-12.8h11.2c3.2 0 4.8-1.6 4.8-4.8v-4.8h-44.8z m44.8-30.4V864h-44.8v8h44.8z m-44.8 11.2v8h44.8v-8h-44.8zM462.4 814.4h57.6v-25.6h14.4v25.6h28.8c-4.8-4.8-11.2-11.2-19.2-17.6l9.6-8c8 6.4 16 12.8 20.8 17.6l-8 8h22.4v12.8h-56v8c3.2 8 8 14.4 12.8 22.4 9.6-8 19.2-16 25.6-25.6l11.2 9.6c-8 9.6-17.6 19.2-28.8 27.2 11.2 12.8 24 24 40 33.6l-9.6 11.2c-22.4-16-38.4-33.6-51.2-56v51.2c0 9.6-4.8 14.4-14.4 14.4h-20.8l-1.6-12.8c6.4 0 12.8 1.6 19.2 1.6 3.2 0 4.8-1.6 4.8-6.4v-35.2c-14.4 17.6-32 32-51.2 44.8l-8-12.8c22.4-11.2 41.6-28.8 59.2-48v-27.2h-57.6v-12.8z m16 20.8c9.6 8 17.6 17.6 24 25.6l-9.6 9.6c-6.4-8-14.4-17.6-24-27.2l9.6-8zM633.6 856l14.4 1.6-3.2 6.4h30.4v11.2c-3.2 9.6-8 16-14.4 24 8 3.2 12.8 6.4 17.6 8l-8 11.2c-6.4-3.2-12.8-6.4-20.8-11.2-9.6 6.4-22.4 11.2-36.8 16l-6.4-11.2c11.2-3.2 20.8-6.4 28.8-9.6-4.8-1.6-11.2-4.8-19.2-8 3.2-6.4 6.4-11.2 9.6-17.6h-16V864h20.8l3.2-8zM609.6 816h28.8v-27.2h12.8V816h25.6v12.8h-25.6c8 3.2 16 6.4 24 11.2l-8 11.2c-6.4-6.4-12.8-9.6-16-12.8v16h-12.8v-25.6c-4.8 11.2-12.8 20.8-24 28.8l-6.4-11.2c9.6-6.4 17.6-12.8 22.4-19.2h-19.2V816z m12.8-25.6c3.2 4.8 6.4 11.2 9.6 17.6l-11.2 4.8c-3.2-8-6.4-14.4-9.6-19.2l11.2-3.2z m40 88H640c-1.6 3.2-4.8 8-6.4 11.2 6.4 1.6 11.2 3.2 14.4 4.8 6.4-4.8 11.2-9.6 14.4-16z m14.4-83.2c-3.2 6.4-6.4 12.8-11.2 19.2l-9.6-4.8c4.8-6.4 8-11.2 11.2-19.2l9.6 4.8z m14.4 54.4c-3.2 6.4-4.8 11.2-8 14.4l-9.6-11.2c8-16 14.4-38.4 17.6-65.6l14.4 1.6c-1.6 8-1.6 14.4-3.2 19.2h38.4v12.8h-8c-1.6 24-4.8 44.8-12.8 60.8 8 12.8 16 20.8 25.6 28.8l-9.6 14.4c-9.6-6.4-17.6-16-24-27.2-8 11.2-16 20.8-27.2 27.2l-8-12.8c11.2-8 19.2-17.6 27.2-28.8-4.8-9.6-9.6-20.8-12.8-33.6z m8-27.2l-1.6 6.4c3.2 16 8 28.8 12.8 40 4.8-12.8 8-28.8 8-46.4h-19.2zM760 923.2l-3.2-12.8c4.8 0 8 1.6 11.2 1.6 3.2 0 4.8-1.6 4.8-6.4v-32c-3.2 1.6-8 3.2-16 4.8l-3.2-14.4 19.2-4.8v-30.4h-16V816h16v-27.2h14.4V816h12.8v12.8h-12.8v25.6c4.8-1.6 9.6-4.8 12.8-6.4v14.4l-12.8 6.4v41.6c0 9.6-4.8 14.4-14.4 14.4h-12.8z m59.2-64c-1.6 25.6-8 46.4-17.6 65.6l-11.2-9.6c9.6-19.2 14.4-43.2 14.4-73.6v-48h80V832h-27.2v14.4h30.4v12.8h-30.4v16h24v51.2h-12.8v-6.4h-35.2v6.4h-12.8v-51.2h24v-16h-25.6z m27.2-27.2h-25.6v16h25.6v-16z m27.2-25.6h-52.8v12.8h52.8v-12.8z m-38.4 99.2h35.2v-19.2h-35.2v19.2zM924.8 891.2c3.2 1.6 3.2 4.8 3.2 8s-1.6 4.8-3.2 8c-1.6 1.6-4.8 3.2-8 3.2s-6.4-1.6-8-3.2c-1.6-1.6-3.2-4.8-3.2-8s1.6-6.4 3.2-8c1.6-1.6 4.8-3.2 8-3.2s6.4 1.6 8 3.2zM966.4 891.2c1.6 1.6 3.2 4.8 3.2 8s-1.6 4.8-3.2 8c-1.6 1.6-4.8 3.2-8 3.2s-6.4-1.6-8-3.2c-1.6-1.6-3.2-4.8-3.2-8s1.6-6.4 3.2-8c1.6-1.6 4.8-3.2 8-3.2s4.8 1.6 8 3.2zM1006.4 891.2c1.6 1.6 3.2 4.8 3.2 8s-1.6 4.8-3.2 8c-1.6 1.6-4.8 3.2-8 3.2s-6.4-1.6-8-3.2c-1.6-1.6-3.2-4.8-3.2-8s1.6-6.4 3.2-8c1.6-1.6 4.8-3.2 8-3.2s6.4 1.6 8 3.2z"
          fill="#bfbfbf" p-id="6604"></path>
</svg>
